<svg xmlns="http://www.w3.org/2000/svg" version="1.1" xmlns:xlink="http://www.w3.org/1999/xlink"
     xmlns:svgjs="http://svgjs.dev/svgjs" viewBox="0 0 800 400">
    <path d="M25.560537338256836,251.12107849121094C34.230193773905434,242.45142110188803,65.32137521107991,198.80418141682944,77.57847595214844,199.10313415527344C89.83557669321696,199.40208689371744,76.53214009602864,251.27054850260416,99.10314178466797,252.914794921875C121.6741434733073,254.55904134114584,194.31988143920898,209.71599578857422,213.00448608398438,208.96861267089844C231.68909072875977,208.22122955322266,195.6651814778646,248.28102111816406,211.2107696533203,248.4304962158203C226.75635782877603,248.57997131347656,286.39759572347003,207.32435862223306,306.27801513671875,209.86546325683594C326.15843454996747,212.4065678914388,306.8759460449219,263.6771240234375,330.4932861328125,263.6771240234375C354.1106262207031,263.6771240234375,427.95216369628906,208.9686024983724,447.9820556640625,209.86546325683594C468.01194763183594,210.76232401529947,433.3333231608073,266.9656117757161,450.6726379394531,269.05828857421875C468.01195271809894,271.1509653727214,531.6890920003256,222.5709991455078,552.0179443359375,222.42152404785156C572.3467966715494,222.2720489501953,552.9148152669271,272.34678904215497,572.645751953125,268.16143798828125C592.3766886393229,263.97608693440753,650.6726277669271,200.44843292236328,670.403564453125,197.30941772460938C690.1345011393229,194.17040252685547,670.403564453125,257.10014088948566,691.0313720703125,249.3273468017578C711.6591796875,241.55455271402994,776.9805704752604,167.11510213216147,794.17041015625,150.6726531982422"
          fill="none" stroke-width="25" stroke="url(&quot;#SvgjsLinearGradient1002&quot;)" stroke-linecap="round"
          transform="matrix(1,0,0,1,-9.865468978881836,-9.898323059082031)"></path>
    <defs>
        <linearGradient id="SvgjsLinearGradient1002" gradientTransform="rotate(8, 0.5, 0.5)">
            <stop stop-color="hsl(353, 98%, 41%)" offset="0"></stop>
            <stop stop-color="hsl(55, 94%, 54%)" offset="1"></stop>
        </linearGradient>
    </defs>
</svg>