<svg xmlns="http://www.w3.org/2000/svg" version="1.1" xmlns:xlink="http://www.w3.org/1999/xlink" xmlns:svgjs="http://svgjs.dev/svgjs" viewBox="0 0 1422 800"><g stroke-width="3.5" stroke="hsl(60, 100%, 50%)" fill="none" stroke-linecap="butt"><line x1="0" y1="0" x2="76" y2="76" opacity="0.05"></line><line x1="76" y1="0" x2="152" y2="76" opacity="0.05"></line><line x1="228" y1="0" x2="152" y2="76" opacity="0.05"></line><line x1="228" y1="0" x2="304" y2="76" opacity="0.05"></line><line x1="304" y1="0" x2="380" y2="76" opacity="0.05"></line><line x1="380" y1="0" x2="456" y2="76" opacity="0.05"></line><line x1="456" y1="0" x2="532" y2="76" opacity="0.05"></line><line x1="532" y1="0" x2="608" y2="76" opacity="0.05"></line><line x1="684" y1="0" x2="608" y2="76" opacity="0.05"></line><line x1="684" y1="0" x2="760" y2="76" opacity="0.05"></line><line x1="760" y1="0" x2="836" y2="76" opacity="0.05"></line><line x1="836" y1="0" x2="912" y2="76" opacity="0.05"></line><line x1="988" y1="0" x2="912" y2="76" opacity="0.05"></line><line x1="988" y1="0" x2="1064" y2="76" opacity="0.05"></line><line x1="1140" y1="0" x2="1064" y2="76" opacity="0.05"></line><line x1="1216" y1="0" x2="1140" y2="76" opacity="0.05"></line><line x1="1292" y1="0" x2="1216" y2="76" opacity="0.05"></line><line x1="1292" y1="0" x2="1368" y2="76" opacity="0.05"></line><line x1="1444" y1="0" x2="1368" y2="76" opacity="0.05"></line><line x1="0" y1="76" x2="76" y2="152" opacity="0.14"></line><line x1="152" y1="76" x2="76" y2="152" opacity="0.14"></line><line x1="152" y1="76" x2="228" y2="152" opacity="0.14"></line><line x1="228" y1="76" x2="304" y2="152" opacity="0.14"></line><line x1="380" y1="76" x2="304" y2="152" opacity="0.14"></line><line x1="456" y1="76" x2="380" y2="152" opacity="0.14"></line><line x1="456" y1="76" x2="532" y2="152" opacity="0.14"></line><line x1="532" y1="76" x2="608" y2="152" opacity="0.14"></line><line x1="684" y1="76" x2="608" y2="152" opacity="0.14"></line><line x1="760" y1="76" x2="684" y2="152" opacity="0.14"></line><line x1="836" y1="76" x2="760" y2="152" opacity="0.14"></line><line x1="912" y1="76" x2="836" y2="152" opacity="0.14"></line><line x1="912" y1="76" x2="988" y2="152" opacity="0.14"></line><line x1="1064" y1="76" x2="988" y2="152" opacity="0.14"></line><line x1="1140" y1="76" x2="1064" y2="152" opacity="0.14"></line><line x1="1140" y1="76" x2="1216" y2="152" opacity="0.14"></line><line x1="1292" y1="76" x2="1216" y2="152" opacity="0.14"></line><line x1="1292" y1="76" x2="1368" y2="152" opacity="0.14"></line><line x1="1368" y1="76" x2="1444" y2="152" opacity="0.14"></line><line x1="76" y1="152" x2="0" y2="228" opacity="0.23"></line><line x1="152" y1="152" x2="76" y2="228" opacity="0.23"></line><line x1="152" y1="152" x2="228" y2="228" opacity="0.23"></line><line x1="304" y1="152" x2="228" y2="228" opacity="0.23"></line><line x1="380" y1="152" x2="304" y2="228" opacity="0.23"></line><line x1="456" y1="152" x2="380" y2="228" opacity="0.23"></line><line x1="532" y1="152" x2="456" y2="228" opacity="0.23"></line><line x1="608" y1="152" x2="532" y2="228" opacity="0.23"></line><line x1="684" y1="152" x2="608" y2="228" opacity="0.23"></line><line x1="684" y1="152" x2="760" y2="228" opacity="0.23"></line><line x1="836" y1="152" x2="760" y2="228" opacity="0.23"></line><line x1="912" y1="152" x2="836" y2="228" opacity="0.23"></line><line x1="988" y1="152" x2="912" y2="228" opacity="0.23"></line><line x1="988" y1="152" x2="1064" y2="228" opacity="0.23"></line><line x1="1064" y1="152" x2="1140" y2="228" opacity="0.23"></line><line x1="1216" y1="152" x2="1140" y2="228" opacity="0.23"></line><line x1="1292" y1="152" x2="1216" y2="228" opacity="0.23"></line><line x1="1292" y1="152" x2="1368" y2="228" opacity="0.23"></line><line x1="1368" y1="152" x2="1444" y2="228" opacity="0.23"></line><line x1="0" y1="228" x2="76" y2="304" opacity="0.32"></line><line x1="152" y1="228" x2="76" y2="304" opacity="0.32"></line><line x1="152" y1="228" x2="228" y2="304" opacity="0.32"></line><line x1="228" y1="228" x2="304" y2="304" opacity="0.32"></line><line x1="304" y1="228" x2="380" y2="304" opacity="0.32"></line><line x1="456" y1="228" x2="380" y2="304" opacity="0.32"></line><line x1="456" y1="228" x2="532" y2="304" opacity="0.32"></line><line x1="608" y1="228" x2="532" y2="304" opacity="0.32"></line><line x1="684" y1="228" x2="608" y2="304" opacity="0.32"></line><line x1="684" y1="228" x2="760" y2="304" opacity="0.32"></line><line x1="836" y1="228" x2="760" y2="304" opacity="0.32"></line><line x1="912" y1="228" x2="836" y2="304" opacity="0.32"></line><line x1="912" y1="228" x2="988" y2="304" opacity="0.32"></line><line x1="1064" y1="228" x2="988" y2="304" opacity="0.32"></line><line x1="1064" y1="228" x2="1140" y2="304" opacity="0.32"></line><line x1="1140" y1="228" x2="1216" y2="304" opacity="0.32"></line><line x1="1292" y1="228" x2="1216" y2="304" opacity="0.32"></line><line x1="1368" y1="228" x2="1292" y2="304" opacity="0.32"></line><line x1="1368" y1="228" x2="1444" y2="304" opacity="0.32"></line><line x1="76" y1="304" x2="0" y2="380" opacity="0.41"></line><line x1="152" y1="304" x2="76" y2="380" opacity="0.41"></line><line x1="152" y1="304" x2="228" y2="380" opacity="0.41"></line><line x1="228" y1="304" x2="304" y2="380" opacity="0.41"></line><line x1="380" y1="304" x2="304" y2="380" opacity="0.41"></line><line x1="456" y1="304" x2="380" y2="380" opacity="0.41"></line><line x1="532" y1="304" x2="456" y2="380" opacity="0.41"></line><line x1="532" y1="304" x2="608" y2="380" opacity="0.41"></line><line x1="608" y1="304" x2="684" y2="380" opacity="0.41"></line><line x1="684" y1="304" x2="760" y2="380" opacity="0.41"></line><line x1="836" y1="304" x2="760" y2="380" opacity="0.41"></line><line x1="836" y1="304" x2="912" y2="380" opacity="0.41"></line><line x1="912" y1="304" x2="988" y2="380" opacity="0.41"></line><line x1="988" y1="304" x2="1064" y2="380" opacity="0.41"></line><line x1="1140" y1="304" x2="1064" y2="380" opacity="0.41"></line><line x1="1140" y1="304" x2="1216" y2="380" opacity="0.41"></line><line x1="1216" y1="304" x2="1292" y2="380" opacity="0.41"></line><line x1="1368" y1="304" x2="1292" y2="380" opacity="0.41"></line><line x1="1368" y1="304" x2="1444" y2="380" opacity="0.41"></line><line x1="76" y1="380" x2="0" y2="456" opacity="0.50"></line><line x1="76" y1="380" x2="152" y2="456" opacity="0.50"></line><line x1="228" y1="380" x2="152" y2="456" opacity="0.50"></line><line x1="304" y1="380" x2="228" y2="456" opacity="0.50"></line><line x1="304" y1="380" x2="380" y2="456" opacity="0.50"></line><line x1="456" y1="380" x2="380" y2="456" opacity="0.50"></line><line x1="456" y1="380" x2="532" y2="456" opacity="0.50"></line><line x1="608" y1="380" x2="532" y2="456" opacity="0.50"></line><line x1="684" y1="380" x2="608" y2="456" opacity="0.50"></line><line x1="684" y1="380" x2="760" y2="456" opacity="0.50"></line><line x1="836" y1="380" x2="760" y2="456" opacity="0.50"></line><line x1="912" y1="380" x2="836" y2="456" opacity="0.50"></line><line x1="912" y1="380" x2="988" y2="456" opacity="0.50"></line><line x1="1064" y1="380" x2="988" y2="456" opacity="0.50"></line><line x1="1140" y1="380" x2="1064" y2="456" opacity="0.50"></line><line x1="1216" y1="380" x2="1140" y2="456" opacity="0.50"></line><line x1="1292" y1="380" x2="1216" y2="456" opacity="0.50"></line><line x1="1292" y1="380" x2="1368" y2="456" opacity="0.50"></line><line x1="1444" y1="380" x2="1368" y2="456" opacity="0.50"></line><line x1="76" y1="456" x2="0" y2="532" opacity="0.59"></line><line x1="76" y1="456" x2="152" y2="532" opacity="0.59"></line><line x1="152" y1="456" x2="228" y2="532" opacity="0.59"></line><line x1="304" y1="456" x2="228" y2="532" opacity="0.59"></line><line x1="304" y1="456" x2="380" y2="532" opacity="0.59"></line><line x1="380" y1="456" x2="456" y2="532" opacity="0.59"></line><line x1="532" y1="456" x2="456" y2="532" opacity="0.59"></line><line x1="608" y1="456" x2="532" y2="532" opacity="0.59"></line><line x1="608" y1="456" x2="684" y2="532" opacity="0.59"></line><line x1="684" y1="456" x2="760" y2="532" opacity="0.59"></line><line x1="760" y1="456" x2="836" y2="532" opacity="0.59"></line><line x1="836" y1="456" x2="912" y2="532" opacity="0.59"></line><line x1="912" y1="456" x2="988" y2="532" opacity="0.59"></line><line x1="1064" y1="456" x2="988" y2="532" opacity="0.59"></line><line x1="1140" y1="456" x2="1064" y2="532" opacity="0.59"></line><line x1="1216" y1="456" x2="1140" y2="532" opacity="0.59"></line><line x1="1292" y1="456" x2="1216" y2="532" opacity="0.59"></line><line x1="1292" y1="456" x2="1368" y2="532" opacity="0.59"></line><line x1="1444" y1="456" x2="1368" y2="532" opacity="0.59"></line><line x1="0" y1="532" x2="76" y2="608" opacity="0.68"></line><line x1="76" y1="532" x2="152" y2="608" opacity="0.68"></line><line x1="228" y1="532" x2="152" y2="608" opacity="0.68"></line><line x1="228" y1="532" x2="304" y2="608" opacity="0.68"></line><line x1="380" y1="532" x2="304" y2="608" opacity="0.68"></line><line x1="456" y1="532" x2="380" y2="608" opacity="0.68"></line><line x1="456" y1="532" x2="532" y2="608" opacity="0.68"></line><line x1="532" y1="532" x2="608" y2="608" opacity="0.68"></line><line x1="608" y1="532" x2="684" y2="608" opacity="0.68"></line><line x1="684" y1="532" x2="760" y2="608" opacity="0.68"></line><line x1="836" y1="532" x2="760" y2="608" opacity="0.68"></line><line x1="836" y1="532" x2="912" y2="608" opacity="0.68"></line><line x1="912" y1="532" x2="988" y2="608" opacity="0.68"></line><line x1="988" y1="532" x2="1064" y2="608" opacity="0.68"></line><line x1="1064" y1="532" x2="1140" y2="608" opacity="0.68"></line><line x1="1140" y1="532" x2="1216" y2="608" opacity="0.68"></line><line x1="1216" y1="532" x2="1292" y2="608" opacity="0.68"></line><line x1="1292" y1="532" x2="1368" y2="608" opacity="0.68"></line><line x1="1368" y1="532" x2="1444" y2="608" opacity="0.68"></line><line x1="0" y1="608" x2="76" y2="684" opacity="0.77"></line><line x1="76" y1="608" x2="152" y2="684" opacity="0.77"></line><line x1="152" y1="608" x2="228" y2="684" opacity="0.77"></line><line x1="228" y1="608" x2="304" y2="684" opacity="0.77"></line><line x1="304" y1="608" x2="380" y2="684" opacity="0.77"></line><line x1="456" y1="608" x2="380" y2="684" opacity="0.77"></line><line x1="456" y1="608" x2="532" y2="684" opacity="0.77"></line><line x1="532" y1="608" x2="608" y2="684" opacity="0.77"></line><line x1="608" y1="608" x2="684" y2="684" opacity="0.77"></line><line x1="760" y1="608" x2="684" y2="684" opacity="0.77"></line><line x1="836" y1="608" x2="760" y2="684" opacity="0.77"></line><line x1="912" y1="608" x2="836" y2="684" opacity="0.77"></line><line x1="988" y1="608" x2="912" y2="684" opacity="0.77"></line><line x1="988" y1="608" x2="1064" y2="684" opacity="0.77"></line><line x1="1140" y1="608" x2="1064" y2="684" opacity="0.77"></line><line x1="1216" y1="608" x2="1140" y2="684" opacity="0.77"></line><line x1="1216" y1="608" x2="1292" y2="684" opacity="0.77"></line><line x1="1292" y1="608" x2="1368" y2="684" opacity="0.77"></line><line x1="1368" y1="608" x2="1444" y2="684" opacity="0.77"></line><line x1="76" y1="684" x2="0" y2="760" opacity="0.86"></line><line x1="152" y1="684" x2="76" y2="760" opacity="0.86"></line><line x1="228" y1="684" x2="152" y2="760" opacity="0.86"></line><line x1="304" y1="684" x2="228" y2="760" opacity="0.86"></line><line x1="304" y1="684" x2="380" y2="760" opacity="0.86"></line><line x1="380" y1="684" x2="456" y2="760" opacity="0.86"></line><line x1="456" y1="684" x2="532" y2="760" opacity="0.86"></line><line x1="608" y1="684" x2="532" y2="760" opacity="0.86"></line><line x1="608" y1="684" x2="684" y2="760" opacity="0.86"></line><line x1="760" y1="684" x2="684" y2="760" opacity="0.86"></line><line x1="760" y1="684" x2="836" y2="760" opacity="0.86"></line><line x1="836" y1="684" x2="912" y2="760" opacity="0.86"></line><line x1="988" y1="684" x2="912" y2="760" opacity="0.86"></line><line x1="1064" y1="684" x2="988" y2="760" opacity="0.86"></line><line x1="1064" y1="684" x2="1140" y2="760" opacity="0.86"></line><line x1="1216" y1="684" x2="1140" y2="760" opacity="0.86"></line><line x1="1216" y1="684" x2="1292" y2="760" opacity="0.86"></line><line x1="1292" y1="684" x2="1368" y2="760" opacity="0.86"></line><line x1="1368" y1="684" x2="1444" y2="760" opacity="0.86"></line><line x1="76" y1="760" x2="0" y2="836" opacity="0.95"></line><line x1="76" y1="760" x2="152" y2="836" opacity="0.95"></line><line x1="228" y1="760" x2="152" y2="836" opacity="0.95"></line><line x1="228" y1="760" x2="304" y2="836" opacity="0.95"></line><line x1="380" y1="760" x2="304" y2="836" opacity="0.95"></line><line x1="380" y1="760" x2="456" y2="836" opacity="0.95"></line><line x1="532" y1="760" x2="456" y2="836" opacity="0.95"></line><line x1="608" y1="760" x2="532" y2="836" opacity="0.95"></line><line x1="608" y1="760" x2="684" y2="836" opacity="0.95"></line><line x1="760" y1="760" x2="684" y2="836" opacity="0.95"></line><line x1="760" y1="760" x2="836" y2="836" opacity="0.95"></line><line x1="836" y1="760" x2="912" y2="836" opacity="0.95"></line><line x1="912" y1="760" x2="988" y2="836" opacity="0.95"></line><line x1="988" y1="760" x2="1064" y2="836" opacity="0.95"></line><line x1="1064" y1="760" x2="1140" y2="836" opacity="0.95"></line><line x1="1216" y1="760" x2="1140" y2="836" opacity="0.95"></line><line x1="1292" y1="760" x2="1216" y2="836" opacity="0.95"></line><line x1="1368" y1="760" x2="1292" y2="836" opacity="0.95"></line><line x1="1368" y1="760" x2="1444" y2="836" opacity="0.95"></line></g></svg>